<svg title="N Pay" width="100" height="30" viewBox="30" fill="none" xmlns="http://www.w3.org/2000/svg">
    <path d="M24 13.5C24 15.8734 23.2962 18.1935 21.9776 20.1668C20.6591 22.1402 18.7849 23.6783 16.5922 24.5866C14.3995 25.4948 11.9867 25.7324 9.65892 25.2694C7.33115 24.8064 5.19296 23.6635 3.51473 21.9853C1.8365 20.3071 0.693606 18.1689 0.230583 15.8411C-0.232439 13.5133 0.00519597 11.1005 0.913448 8.9078C1.8217 6.71508 3.35977 4.84094 5.33316 3.52236C7.30655 2.20379 9.62663 1.5 12 1.5C15.1826 1.5 18.2348 2.76428 20.4853 5.01472C22.7357 7.26515 24 10.3174 24 13.5ZM14.007 7.86V13.893L9.80701 7.86H6.36V19.155H9.99V13.104L14.19 19.14H17.649V7.86H14.007Z" fill="black"></path>
    <path d="M67.0167 7.19398L63.6996 14.7522L59.9474 7.19398H57.0625L62.3764 17.68L60.1858 22.5936H62.9873L69.8182 7.20888L67.0167 7.19398ZM55.2187 18.8816H52.4768V17.7904C51.4794 18.6647 50.1936 19.1384 48.8676 19.1201C45.5893 19.1201 43.0232 16.4368 43.0232 13.0378C43.0232 9.63884 45.5863 6.95545 48.8676 6.95545C50.1932 6.93637 51.4789 7.40902 52.4768 8.28224V7.19398H55.2187V18.8816ZM52.7987 13.0527C52.7987 10.8493 51.2608 9.1767 49.2223 9.1767C47.1838 9.1767 45.6459 10.8493 45.6459 13.0527C45.6459 15.2561 47.1808 16.9287 49.2223 16.9287C51.2638 16.9287 52.7987 15.2412 52.7987 13.0527ZM29.4635 22.5936H32.3246V17.8888C33.3036 18.7031 34.5416 19.1399 35.8146 19.1201C39.0929 19.1201 41.662 16.4368 41.662 13.0378C41.662 9.63884 39.0959 6.95545 35.8146 6.95545C34.4855 6.93157 33.1953 7.40469 32.1965 8.28224V7.19398H29.4546L29.4635 22.5936ZM35.4748 9.1767C37.5134 9.1767 39.0512 10.8493 39.0512 13.0527C39.0512 15.2561 37.5134 16.9287 35.4748 16.9287C33.4363 16.9287 31.8985 15.2561 31.8985 13.0527C31.8985 10.8493 33.4184 9.1767 35.4748 9.1767Z" fill="black"></path>
</svg>